HIERARCHY
ROOT Hips
{
 OFFSET 0.000000 0.000000 0.000000
 CHANNELS 6 Xposition Yposition Zposition Yrotation Xrotation Zrotation
 JOINT Chest
 {
  OFFSET 0.000000 9.724570 -1.080508
  CHANNELS 3 Yrotation Xrotation Zrotation
  JOINT Chest2
  {
   OFFSET 0.000000 10.781023 0.000000
   CHANNELS 3 Yrotation Xrotation Zrotation
   JOINT Chest3
   {
    OFFSET 0.000000 9.842877 -0.000488
    CHANNELS 3 Yrotation Xrotation Zrotation
    JOINT Chest4
    {
     OFFSET 0.000000 9.831886 -0.000488
     CHANNELS 3 Yrotation Xrotation Zrotation
     JOINT Neck
     {
      OFFSET 0.000000 13.778020 0.000000
      CHANNELS 3 Yrotation Xrotation Zrotation
      JOINT Head
      {
       OFFSET 0.000000 9.153561 0.001049
       CHANNELS 3 Yrotation Xrotation Zrotation
       End Site
       {
        OFFSET 0.000000 17.013053 0.000141
       }
      }
     }
     JOINT RightCollar
     {
      OFFSET -2.998440 7.723576 0.000000
      CHANNELS 3 Yrotation Xrotation Zrotation
      JOINT RightShoulder
      {
       OFFSET -14.001811 0.000000 0.000000
       CHANNELS 3 Yrotation Xrotation Zrotation
       JOINT RightElbow
       {
        OFFSET -30.003712 0.000000 0.000000
        CHANNELS 3 Yrotation Xrotation Zrotation
        JOINT RightWrist
        {
         OFFSET -24.523460 0.000000 0.000000
         CHANNELS 3 Yrotation Xrotation Zrotation
         End Site
         {
          OFFSET -18.302352 0.000000 0.000000
         }
        }
       }
      }
     }
     JOINT LeftCollar
     {
      OFFSET 2.998440 7.723576 0.000000
      CHANNELS 3 Yrotation Xrotation Zrotation
      JOINT LeftShoulder
      {
       OFFSET 14.001811 0.000000 0.000000
       CHANNELS 3 Yrotation Xrotation Zrotation
       JOINT LeftElbow
       {
        OFFSET 30.003712 0.000000 0.000000
        CHANNELS 3 Yrotation Xrotation Zrotation
        JOINT LeftWrist
        {
         OFFSET 24.523460 0.000000 0.000000
         CHANNELS 3 Yrotation Xrotation Zrotation
         End Site
         {
          OFFSET 18.302352 0.000000 0.000000
         }
        }
       }
      }
     }
    }
   }
  }
 }
 JOINT RightHip
 {
  OFFSET -7.997399 0.002291 -0.000255
  CHANNELS 3 Yrotation Xrotation Zrotation
  JOINT RightKnee
  {
   OFFSET 0.000000 -41.619678 -0.000115
   CHANNELS 3 Yrotation Xrotation Zrotation
   JOINT RightAnkle
   {
    OFFSET 0.000000 -40.601393 -0.000194
    CHANNELS 3 Yrotation Xrotation Zrotation
    JOINT RightToe
    {
     OFFSET 0.000000 -6.581369 14.895014
     CHANNELS 3 Yrotation Xrotation Zrotation
     End Site
     {
      OFFSET 0.000000 -1.508064 6.450961
     }
    }
   }
  }
 }
 JOINT LeftHip
 {
  OFFSET 7.997399 0.000098 -0.000011
  CHANNELS 3 Yrotation Xrotation Zrotation
  JOINT LeftKnee
  {
   OFFSET 0.000000 -41.619678 -0.000115
   CHANNELS 3 Yrotation Xrotation Zrotation
   JOINT LeftAnkle
   {
    OFFSET 0.000000 -40.601393 -0.000194
    CHANNELS 3 Yrotation Xrotation Zrotation
    JOINT LeftToe
    {
     OFFSET 0.000000 -6.581369 14.895014
     CHANNELS 3 Yrotation Xrotation Zrotation
     End Site
     {
      OFFSET 0.000000 -1.508064 6.450961
     }
    }
   }
  }
 }
}
MOTION
Frames: 14
Frame Time: 0.016667
0.000000 90.139245 0.000000 0.000000 6.340192 0.000000 0.000000 -6.340192 0.000000 0.000000 -5.826342 0.000000 0.000000 -0.005910 0.000000 0.000000 5.832252 0.000000 0.000000 12.610213 0.000000 0.000000 -9.243752 0.000000 0.000000 0.000000 0.000000 0.000000 0.000000 0.000000 2.309063 0.000000 0.000000 -2.309063 0.000000 0.000000 0.000000 0.000000 0.000000 0.000000 0.000000 0.000000 -2.309063 0.000000 0.000000 2.309063 0.000000 0.000000 0.000000 -3.591006 0.000000 0.000000 1.872585 0.000000 0.000000 -4.621771 0.000000 0.000000 0.000000 0.000000 0.000000 -3.587706 0.000000 0.000000 1.905768 0.000000 0.000000 -4.658254 0.000000 0.000000 0.000000 0.000000
201.592135 89.486841 211.546685 20.473047 -4.089105 -0.240772 -4.559427 3.638128 0.401266 -2.050292 -4.213349 0.214501 -2.045556 1.603368 0.006331 -1.533065 7.039203 0.010051 -0.677318 12.066933 0.437593 -1.479936 -13.609802 1.123707 1.508271 1.868425 7.742190 -13.610334 -8.599369 77.140671 5.474867 -5.760183 7.009297 0.050296 26.926539 8.543763 -8.562344 4.330134 -9.704654 -67.947061 1.026426 -68.122065 -8.090558 0.543506 -16.072429 8.207760 0.508001 1.290549 -7.384260 10.764341 -0.938343 -0.551290 4.345430 -0.008386 -0.582491 -9.903149 1.564088 0.007101 -1.106552 -0.735294 27.682907 11.349700 4.685180 -0.127116 3.683425 0.010137 16.071646 -8.352087 -6.332477 -0.012986 -2.040564 0.729188
201.592975 89.511050 211.535042 20.465547 -4.041565 -0.205399 -4.558176 3.606980 0.388933 -2.049042 -4.227072 0.208700 -2.044259 1.589650 0.000657 -1.532520 7.028933 0.005715 -0.659785 12.076519 0.447268 -1.450382 -13.592125 1.134577 1.489787 1.865681 7.733244 -13.605689 -8.583190 77.138723 5.460720 -5.767261 6.997611 0.066203 26.923367 8.568431 -8.538300 4.325958 -9.671327 -67.991464 0.993339 -68.179498 -8.070169 0.544892 -16.059711 8.201239 0.529747 1.290574 -7.352013 10.712888 -0.987338 -0.608717 4.318759 0.032097 -0.544554 -9.835071 1.559299 0.007502 -1.147622 -0.749019 27.551337 11.265834 4.622109 0.002038 3.725088 -0.029391 16.046962 -8.288604 -6.303395 -0.013338 -2.086323 0.732505
201.592450 89.531861 211.523187 20.455898 -3.996918 -0.173878 -4.556263 3.577374 0.377752 -2.047562 -4.240120 0.203421 -2.042734 1.576607 -0.004470 -1.531763 7.019168 0.001793 -0.643951 12.084848 0.456256 -1.423805 -13.576764 1.144882 1.470679 1.860115 7.727053 -13.601324 -8.567095 77.132922 5.449437 -5.769364 6.988154 0.080967 26.933287 8.593124 -8.517821 4.318574 -9.641242 -68.026335 0.964411 -68.235219 -8.052349 0.544929 -16.048866 8.195755 0.547089 1.289748 -7.318851 10.664462 -1.028795 -0.660216 4.293244 0.066480 -0.511493 -9.772082 1.555762 0.007874 -1.184381 -0.761784 27.431266 11.194084 4.563937 0.118401 3.763232 -0.064424 16.030830 -8.230462 -6.279418 -0.013698 -2.134117 0.735403
201.589307 89.547318 211.510996 20.441823 -3.956777 -0.148062 -4.551998 3.549901 0.367462 -2.045086 -4.252227 0.198541 -2.040220 1.564509 -0.009097 -1.530228 7.010110 -0.001749 -0.629581 12.091504 0.465731 -1.400262 -13.564479 1.156769 1.448155 1.849874 7.725557 -13.595490 -8.550467 77.121669 5.442020 -5.762085 6.981926 0.094335 26.966861 8.617648 -8.505318 4.305028 -9.614878 -68.045396 0.942568 -68.290365 -8.038344 0.542548 -16.040753 8.192071 0.556559 1.287177 -7.282647 10.620645 -1.058112 -0.703223 4.269199 0.091128 -0.485987 -9.716374 1.554103 0.008197 -1.214747 -0.773228 27.328287 11.142742 4.513057 0.215932 3.795419 -0.093028 16.028786 -8.179754 -6.263418 -0.014073 -2.186581 0.737415
201.584799 89.559378 211.498594 20.425586 -3.919526 -0.126101 -4.547079 3.523971 0.358325 -2.042383 -4.263659 0.194185 -2.037481 1.553086 -0.013178 -1.528483 7.001557 -0.004877 -0.616911 12.096903 0.474516 -1.379693 -13.554512 1.168083 1.425003 1.836816 7.726820 -13.589934 -8.533926 77.106561 5.437467 -5.749831 6.977930 0.106612 27.013522 8.642229 -8.496382 4.288284 -9.591761 -68.054934 0.924921 -68.343829 -8.026913 0.538825 -16.034506 8.189422 0.561623 1.283753 -7.245541 10.579834 -1.079879 -0.740285 4.246275 0.109668 -0.465341 -9.665762 1.553683 0.008487 -1.240802 -0.783711 27.236672 11.103638 4.466911 0.300650 3.824054 -0.117270 16.035254 -8.134407 -6.252502 -0.014455 -2.241080 0.739003
201.581325 89.570513 211.486148 20.411812 -3.883228 -0.106274 -4.545939 3.499349 0.352276 -2.041527 -4.274543 0.191246 -2.036588 1.542206 -0.016029 -1.528030 6.993406 -0.007070 -0.608340 12.101047 0.478389 -1.364894 -13.546892 1.171775 1.408972 1.823674 7.727791 -13.590186 -8.519407 77.088531 5.435636 -5.740847 6.975399 0.117484 27.054673 8.667511 -8.481328 4.274033 -9.573708 -68.064305 0.906969 -68.390580 -8.016893 0.535648 -16.029404 8.186553 0.568280 1.281294 -7.213029 10.540232 -1.100288 -0.773105 4.224582 0.126890 -0.446330 -9.618775 1.553832 0.008755 -1.264484 -0.793347 27.150726 11.064495 4.422662 0.377837 3.852828 -0.138841 16.042041 -8.093533 -6.243091 -0.014824 -2.291740 0.741140
201.580315 89.581405 211.473445 20.402695 -3.847146 -0.088589 -4.552212 3.476201 0.351324 -2.044241 -4.284826 0.190646 -2.039258 1.531913 -0.016904 -1.530101 6.985689 -0.007759 -0.604054 12.102659 0.473056 -1.354419 -13.544056 1.159744 1.406610 1.810547 7.727330 -13.602277 -8.508394 77.065539 5.439268 -5.738067 6.975576 0.126301 27.087230 8.695368 -8.452085 4.264364 -9.563470 -68.074539 0.885480 -68.427060 -8.008033 0.534347 -16.025697 8.183218 0.579596 1.280717 -7.187883 10.501059 -1.121589 -0.801461 4.204583 0.144799 -0.427986 -9.575698 1.554307 0.008999 -1.285927 -0.801912 27.066498 11.020710 4.378850 0.450186 3.884065 -0.157835 16.047033 -8.058349 -6.234380 -0.015179 -2.335910 0.744499
201.580338 89.591373 211.460698 20.396038 -3.812021 -0.073031 -4.562266 3.454361 0.353472 -2.048802 -4.294561 0.191466 -2.043772 1.522161 -0.016545 -1.533464 6.978374 -0.007509 -0.603864 12.103013 0.462807 -1.349706 -13.543569 1.140081 1.411375 1.797336 7.726585 -13.620175 -8.499424 77.039613 5.445615 -5.738561 6.977222 0.133676 27.114274 8.723910 -8.416708 4.257201 -9.558293 -68.084616 0.863694 -68.456829 -8.000583 0.533593 -16.023134 8.179663 0.592505 1.281105 -7.167332 10.463085 -1.141512 -0.825575 4.185813 0.161388 -0.411272 -9.536249 1.555349 0.009221 -1.304997 -0.809630 26.987936 10.976925 4.336923 0.515007 3.915432 -0.174164 16.052334 -8.027638 -6.227171 -0.015522 -2.376242 0.748411
201.579500 89.600846 211.448717 20.389882 -3.778122 -0.057848 -4.569631 3.433099 0.354646 -2.052115 -4.304028 0.191838 -2.047043 1.512683 -0.016508 -1.535918 6.971265 -0.007506 -0.609617 12.105935 0.456289 -1.357883 -13.538158 1.130021 1.411377 1.786477 7.725933 -13.631315 -8.489996 77.017783 5.446305 -5.741775 6.975833 0.141159 27.126468 8.748107 -8.389697 4.251971 -9.551737 -68.100823 0.846795 -68.485521 -7.994135 0.531282 -16.020237 8.175372 0.603797 1.281536 -7.148565 10.426848 -1.159472 -0.847816 4.166998 0.175421 -0.395873 -9.498099 1.557018 0.009438 -1.323227 -0.817296 26.921230 10.934708 4.298430 0.569516 3.943653 -0.189215 16.056090 -7.996855 -6.220300 -0.015846 -2.414820 0.751835
201.576829 89.609889 211.437581 20.383350 -3.744655 -0.042322 -4.571117 3.411856 0.353397 -2.052685 -4.313458 0.191087 -2.047577 1.503251 -0.017317 -1.536383 6.964193 -0.008147 -0.623534 12.112779 0.456992 -1.384646 -13.525215 1.137145 1.400687 1.778883 7.726077 -13.628221 -8.479436 77.003217 5.434331 -5.751081 6.966907 0.150237 27.109851 8.765071 -8.378970 4.249194 -9.540767 -68.130301 0.838495 -68.515456 -7.989523 0.526543 -16.016829 8.168387 0.612852 1.283393 -7.128902 10.391174 -1.174408 -0.869793 4.148211 0.185723 -0.382508 -9.460315 1.559655 0.009660 -1.341306 -0.825263 26.871715 10.893060 4.264092 0.609933 3.968358 -0.203562 16.057302 -7.964860 -6.213261 -0.016143 -2.452110 0.754276
201.573297 89.618436 211.427212 20.377320 -3.712414 -0.027168 -4.569916 3.391193 0.351162 -2.052008 -4.322619 0.189883 -2.046869 1.494092 -0.018452 -1.535941 6.957328 -0.009036 -0.643397 12.122195 0.461419 -1.424297 -13.507334 1.153850 1.385229 1.773639 7.726306 -13.618376 -8.468392 76.992763 5.416705 -5.763109 6.954941 0.159398 27.078391 8.777673 -8.376612 4.248337 -9.528422 -68.165926 0.835057 -68.544308 -7.985912 0.520246 -16.013091 8.160667 0.620291 1.285297 -7.111023 10.357234 -1.187374 -0.889891 4.129374 0.193469 -0.370456 -9.423831 1.562915 0.009878 -1.358545 -0.833178 26.834037 10.853039 4.233132 0.640039 3.989916 -0.216645 16.056967 -7.932793 -6.206560 -0.016420 -2.487647 0.756230
201.569927 89.626725 211.418185 20.372464 -3.684061 -0.012780 -4.569139 3.372061 0.348198 -2.051484 -4.331093 0.188372 -2.046315 1.485621 -0.019909 -1.535638 6.950979 -0.010167 -0.664401 12.133959 0.467736 -1.466880 -13.485030 1.174596 1.370883 1.770432 7.724882 -13.611655 -8.456333 76.983972 5.406079 -5.767183 6.948920 0.165718 27.064648 8.789505 -8.373377 4.247241 -9.517373 -68.192580 0.830491 -68.570748 -7.980388 0.512898 -16.008079 8.157569 0.624771 1.282178 -7.100148 10.329086 -1.200948 -0.905652 4.108988 0.200957 -0.357250 -9.389123 1.565835 0.010085 -1.374416 -0.840770 26.798349 10.819304 4.204862 0.668391 4.006161 -0.228154 16.056224 -7.899532 -6.200543 -0.016690 -2.522123 0.758148
201.567127 89.634915 211.411220 20.368724 -3.661514 0.000660 -4.569604 3.354559 0.344063 -2.051453 -4.338831 0.186364 -2.046255 1.477882 -0.021913 -1.535746 6.945182 -0.011707 -0.685479 12.154047 0.476940 -1.510666 -13.447206 1.200722 1.361103 1.771665 7.719881 -13.614275 -8.442969 76.977325 5.410127 -5.753854 6.955736 0.166748 27.087666 8.799760 -8.367357 4.245342 -9.508730 -68.200492 0.821677 -68.593958 -7.969779 0.503768 -16.000686 8.163222 0.623091 1.269272 -7.101524 10.309750 -1.216835 -0.914461 4.085911 0.209191 -0.340196 -9.356832 1.567918 0.010275 -1.388322 -0.847997 26.763215 10.795149 4.180136 0.697840 4.015041 -0.238026 16.054218 -7.864216 -6.195298 -0.016956 -2.555836 0.760086
